<?xml version="1.0" standalone="no"?>
<!DOCTYPE svg PUBLIC "-//W3C//DTD SVG 20010904//EN"
 "http://www.w3.org/TR/2001/REC-SVG-20010904/DTD/svg10.dtd">
<svg version="1.0" xmlns="http://www.w3.org/2000/svg"
 width="421.000000pt" height="699.000000pt" viewBox="0 0 421.000000 699.000000"
 preserveAspectRatio="xMidYMid meet">

<g transform="translate(0.000000,699.000000) scale(0.100000,-0.100000)"
fill="#000000" stroke="none">
<path d="M1766 6855 c-42 -62 -85 -137 -96 -166 -24 -69 -42 -82 -104 -75 -39
4 -52 2 -63 -12 -19 -23 -93 -173 -93 -188 0 -6 -14 -17 -30 -24 -17 -7 -42
-26 -56 -43 -13 -16 -26 -28 -28 -26 -1 2 -15 25 -29 51 -15 26 -64 86 -109
133 -74 78 -85 86 -111 81 -16 -3 -44 1 -64 9 -20 9 -38 14 -40 12 -11 -12
-24 -130 -18 -177 18 -154 48 -342 70 -433 27 -113 40 -229 55 -512 11 -197
33 -413 51 -494 18 -84 59 -197 88 -243 15 -24 42 -74 59 -109 59 -124 149
-187 365 -259 98 -32 99 -32 119 -79 31 -74 84 -256 113 -391 36 -169 104
-573 98 -583 -3 -5 -16 13 -30 40 -126 240 -317 487 -554 718 -228 221 -466
408 -784 616 -99 65 -237 157 -307 205 -119 82 -129 92 -164 156 -21 37 -40
68 -44 68 -4 0 -15 -27 -25 -59 -30 -100 -27 -107 145 -311 240 -285 512 -698
749 -1135 137 -252 441 -877 441 -905 0 -5 -48 24 -108 63 -193 129 -513 279
-772 362 -168 53 -203 72 -241 131 -19 30 -37 54 -42 54 -14 0 -67 -94 -67
-119 0 -20 20 -44 82 -101 355 -323 569 -572 811 -940 268 -410 488 -844 888
-1750 98 -223 184 -404 189 -402 6 1 81 55 166 119 l156 117 30 -17 c17 -10
32 -16 33 -15 1 2 64 181 140 398 286 822 442 1213 639 1610 251 503 490 851
807 1175 136 140 142 160 75 239 l-33 39 -35 -59 c-28 -49 -43 -64 -88 -86
-30 -15 -147 -72 -260 -127 -289 -142 -475 -262 -675 -439 -155 -137 -313
-335 -407 -509 -61 -112 -62 -95 -8 167 61 299 147 582 258 849 52 125 76 141
210 141 86 0 97 2 165 36 94 47 147 91 188 156 18 29 52 74 75 101 81 91 148
306 209 672 41 244 83 584 92 736 5 92 3 116 -17 180 -25 85 -55 146 -100 207
l-31 43 -46 -25 c-25 -14 -47 -26 -49 -26 -2 0 -4 15 -4 33 0 89 -72 281 -140
375 l-31 43 -62 -53 c-78 -67 -176 -164 -202 -202 -24 -34 -63 -38 -114 -11
l-31 16 -54 -51 c-30 -28 -66 -68 -81 -89 -20 -29 -37 -42 -69 -50 -24 -6 -49
-17 -56 -26 -20 -24 -28 -18 -40 25 -16 58 -45 125 -92 208 -31 54 -47 72 -63
72 -42 0 -51 20 -75 175 -12 83 -31 173 -42 201 -31 85 -117 199 -199 265
l-36 29 -37 -36 c-21 -20 -39 -34 -41 -32 -2 2 -24 44 -49 94 -34 67 -66 113
-127 177 -45 48 -89 92 -99 97 -15 8 -29 -8 -94 -105z m417 -2517 c3 -57 13
-128 22 -158 8 -30 19 -81 24 -112 22 -135 83 -213 262 -337 121 -83 115 -70
125 -242 11 -204 -27 -640 -105 -1184 -35 -243 -43 -280 -79 -370 -22 -55 -54
-147 -72 -204 -20 -65 -35 -99 -40 -90 -9 18 -12 36 -60 410 -60 471 -81 577
-179 935 -24 87 -49 349 -57 599 -10 300 26 756 64 799 17 19 72 56 83 56 3 0
9 -46 12 -102z"/>
</g>
</svg>
