<?xml version="1.0" standalone="no"?>
<!DOCTYPE svg PUBLIC "-//W3C//DTD SVG 20010904//EN"
 "http://www.w3.org/TR/2001/REC-SVG-20010904/DTD/svg10.dtd">
<svg version="1.0" xmlns="http://www.w3.org/2000/svg"
 width="281.000000pt" height="411.000000pt" viewBox="0 0 281.000000 411.000000"
 preserveAspectRatio="xMidYMid meet">

<g transform="translate(0.000000,411.000000) scale(0.100000,-0.100000)"
fill="#000000" stroke="none">
<path d="M1410 4050 l0 -50 -50 0 -50 0 0 -50 0 -50 -50 0 -50 0 0 50 0 50
-250 0 -250 0 0 -50 0 -50 -150 0 -150 0 0 -100 0 -100 -50 0 -50 0 0 -50 0
-50 -50 0 -50 0 0 -150 0 -150 -100 0 -100 0 0 -200 0 -200 50 0 50 0 0 -50 0
-50 50 0 50 0 0 -50 0 -50 50 0 50 0 0 -100 0 -100 50 0 50 0 0 -50 0 -50 -50
0 -50 0 0 -50 0 -50 -50 0 -50 0 0 -50 0 -50 -50 0 -50 0 0 -100 0 -100 50 0
50 0 0 -50 0 -50 100 0 100 0 0 50 0 50 450 0 450 0 0 -150 0 -150 -50 0 -50
0 0 -350 0 -350 -50 0 -50 0 0 -150 0 -150 -50 0 -50 0 0 -200 0 -200 -50 0
-50 0 0 -150 0 -150 150 0 150 0 0 150 0 150 50 0 50 0 0 200 0 200 50 0 50 0
0 50 0 50 350 0 350 0 0 50 0 50 150 0 150 0 0 50 0 50 50 0 50 0 0 50 0 50
50 0 50 0 0 50 0 50 50 0 50 0 0 50 0 50 50 0 50 0 0 200 0 200 -100 0 -100 0
0 50 0 50 -300 0 -300 0 0 -50 0 -50 -50 0 -50 0 0 -50 0 -50 -50 0 -50 0 0
-50 0 -50 -50 0 -50 0 0 -100 0 -100 -100 0 -100 0 0 200 0 200 50 0 50 0 0
200 0 200 250 0 250 0 0 100 0 100 50 0 50 0 0 50 0 50 50 0 50 0 0 50 0 50
50 0 50 0 0 50 0 50 50 0 50 0 0 50 0 50 -50 0 -50 0 0 50 0 50 -50 0 -50 0 0
50 0 50 -50 0 -50 0 0 50 0 50 -100 0 -100 0 0 100 0 100 50 0 50 0 0 50 0 50
50 0 50 0 0 50 0 50 50 0 50 0 0 150 0 150 -50 0 -50 0 0 50 0 50 -50 0 -50 0
0 50 0 50 -150 0 -150 0 0 50 0 50 -50 0 -50 0 0 50 0 50 -150 0 -150 0 0 -50z
m100 -3100 l0 -50 -50 0 -50 0 0 50 0 50 50 0 50 0 0 -50z"/>
</g>
</svg>
